<svg width="1696" height="734" viewBox="0 0 1696 734" fill="none" xmlns="http://www.w3.org/2000/svg">
<g clip-path="url(#clip0_67_318)">
<path d="M104.354 412.562C119.08 416.224 129.93 428.835 131.366 443.947L139.569 530.128L156.174 539.894C196.672 562.596 240.16 574.144 285.272 574.144C330.384 574.144 373.873 562.586 414.547 539.795L431.025 529.547L439.169 443.947C440.605 428.845 451.465 416.234 466.181 412.562C528.153 397.125 571.071 341.62 570.53 277.6C569.94 209.168 518.217 150.907 450.196 142.086C431.762 139.713 413.092 141.15 395.041 146.349C369.043 112.03 328.535 91.75 285.263 91.75C241.991 91.75 201.483 112.03 175.484 146.349C157.423 141.161 138.763 139.704 120.319 142.086C52.3075 150.907 0.585613 209.168 0.00524183 277.6C-0.545619 341.62 42.3724 397.125 104.354 412.562ZM265.589 534.765C265.589 540.209 261.182 544.61 255.752 544.61C250.323 544.61 245.915 540.209 245.915 534.765V456.007C245.915 450.562 250.323 446.162 255.752 446.162C261.182 446.162 265.589 450.562 265.589 456.007V534.765ZM324.61 534.765C324.61 540.209 320.203 544.61 314.773 544.61C309.344 544.61 304.936 540.209 304.936 534.765V456.007C304.936 450.562 309.344 446.162 314.773 446.162C320.203 446.162 324.61 450.562 324.61 456.007V534.765ZM373.873 435.096C374.541 429.692 379.509 425.931 384.85 426.551C390.24 427.22 394.068 432.142 393.388 437.537L383.552 516.296C382.932 521.278 378.693 524.92 373.803 524.92C373.39 524.92 372.987 524.89 372.573 524.841C367.183 524.171 363.357 519.249 364.036 513.854L373.873 435.096ZM230.068 152.866C248.218 138.867 294.548 120.763 340.084 152.601C344.539 155.702 345.621 161.845 342.513 166.305C340.604 169.041 337.545 170.519 334.436 170.519C332.489 170.519 330.531 169.937 328.81 168.736C283.619 137.144 242.492 168.135 242.089 168.47C237.791 171.769 231.613 170.991 228.287 166.688C224.973 162.377 225.77 156.194 230.068 152.866ZM185.675 426.551C191.006 425.931 195.974 429.692 196.652 435.096L206.489 513.854C207.158 519.249 203.341 524.171 197.951 524.841C197.538 524.89 197.124 524.92 196.721 524.92C191.833 524.92 187.592 521.278 186.974 516.296L177.137 437.537C176.457 432.142 180.284 427.22 185.675 426.551ZM59.2424 257.004C59.39 256.325 75.3748 189.499 157.483 190.198C162.912 190.256 167.27 194.716 167.211 200.15C167.152 205.585 162.528 209.523 157.266 209.887C90.3562 208.755 78.5619 260.696 78.4439 261.218C77.4405 265.825 73.368 268.956 68.8432 268.956C68.1447 268.956 67.4365 268.877 66.7282 268.73C61.4459 267.558 58.0817 262.311 59.2424 257.004Z" fill="#FF6F61"/>
<path d="M424.532 556.739C380.502 581.429 333.768 593.834 285.263 593.834C236.757 593.834 190.023 581.43 146.376 556.965L141.872 554.317L144.331 580.13C145.393 591.294 153.43 601.966 168.215 611.85C169.464 612.687 170.723 613.484 171.982 614.262C174.412 615.739 176.743 617.058 178.867 618.19C184.199 621.016 188.036 622.601 188.036 622.601C218.982 635.635 251.699 642.25 285.272 642.25C318.846 642.25 351.563 635.635 382.45 622.62C382.45 622.62 386.316 621.035 391.697 618.181C393.792 617.058 396.133 615.739 398.592 614.242C399.822 613.484 401.071 612.687 402.32 611.85C417.105 601.966 425.141 591.294 426.204 580.13L428.673 554.179L424.532 556.739Z" fill="#FF6F61"/>
<path d="M1177.17 612.502H1107.61V121.945H1177.17V612.502ZM840.369 437.784C896.055 437.784 940.191 436.888 972.78 435.096C1005.55 433.124 1037.78 429.182 1069.47 423.268L1075.91 480.522C1043.86 486.616 1011.01 490.738 977.345 492.888C943.683 494.858 898.025 495.845 840.369 495.845H797.934V437.784H840.369ZM1035.63 221.401H866.959V460.094H797.934V165.221H1035.63V221.401ZM1635.25 404.99H1565.96V121.945H1635.25V404.99ZM1323.97 354.993H1255.21V152.588H1323.97V354.993ZM1297.91 320.857C1338.91 320.857 1378.03 319.334 1415.28 316.286C1452.52 313.061 1489.68 307.685 1526.74 300.159L1534.8 356.338C1498.1 364.222 1460.67 369.778 1422.53 373.003C1384.58 376.229 1343.04 377.841 1297.91 377.841H1255.21V320.857H1297.91ZM1468.74 412.517C1502.93 412.517 1532.74 416.459 1558.17 424.344C1583.59 432.229 1603.11 443.697 1616.72 458.75C1630.51 473.624 1637.4 491.274 1637.4 511.704C1637.4 532.312 1630.51 550.052 1616.72 564.925C1603.11 579.978 1583.59 591.447 1558.17 599.332C1532.74 607.395 1502.93 611.428 1468.74 611.428C1434.53 611.428 1404.72 607.395 1379.29 599.332C1353.87 591.447 1334.26 579.978 1320.47 564.925C1306.87 550.052 1300.06 532.312 1300.06 511.704C1300.06 491.274 1306.87 473.624 1320.47 458.75C1334.26 443.697 1353.87 432.229 1379.29 424.344C1404.72 416.459 1434.53 412.517 1468.74 412.517ZM1468.74 467.889C1447.07 467.889 1428.89 469.502 1414.21 472.728C1399.52 475.774 1388.43 480.612 1380.9 487.243C1373.38 493.694 1369.62 501.847 1369.62 511.704C1369.62 521.56 1373.38 529.802 1380.9 536.432C1388.6 543.064 1399.8 548.081 1414.48 551.485C1429.16 554.711 1447.25 556.324 1468.74 556.324C1490.39 556.324 1508.57 554.711 1523.25 551.485C1537.94 548.081 1549.03 543.064 1556.56 536.432C1564.25 529.802 1568.1 521.56 1568.1 511.704C1568.1 501.847 1564.34 493.694 1556.82 487.243C1549.31 480.792 1538.2 475.953 1523.52 472.728C1508.84 469.502 1490.58 467.889 1468.74 467.889Z" fill="#FF6F61"/>
</g>
<defs>
<clipPath id="clip0_67_318">
<rect width="1696" height="734" fill="white"/>
</clipPath>
</defs>
</svg>
